<svg width="187" height="45" viewBox="0 0 187 45" fill="none" xmlns="http://www.w3.org/2000/svg">
<path d="M11.6388 2.5V6.81941M33.2358 2.5V6.81941M9.91105 41.3747H34.9636C37.3827 41.3747 38.5923 41.3747 39.5163 40.9038C40.329 40.4898 40.9898 39.829 41.4038 39.0163C41.8747 38.0923 41.8747 36.8827 41.8747 34.4636V13.7305C41.8747 11.3114 41.8747 10.1018 41.4038 9.17785C40.9898 8.36509 40.329 7.7043 39.5163 7.2902C38.5923 6.81941 37.3827 6.81941 34.9636 6.81941H9.91105C7.49197 6.81941 6.2824 6.81941 5.35844 7.2902C4.54568 7.7043 3.8849 8.36509 3.47079 9.17785C3 10.1018 3 11.3114 3 13.7305V34.4636C3 36.8827 3 38.0923 3.47079 39.0163C3.8849 39.829 4.54568 40.4898 5.35844 40.9038C6.2824 41.3747 7.49195 41.3747 9.91105 41.3747Z" stroke="white" stroke-width="4.31941" stroke-linecap="round" stroke-linejoin="round"/>
<path d="M34.1291 23.6396C34.1291 25.0277 33.8557 26.4022 33.3245 27.6846C32.7934 28.9669 32.0148 30.1322 31.0333 31.1137C30.0518 32.0952 28.8866 32.8737 27.6042 33.4049C26.3218 33.9361 24.9473 34.2095 23.5593 34.2095C22.1712 34.2095 20.7968 33.9361 19.5144 33.4049C18.232 32.8737 17.0668 32.0952 16.0853 31.1137C15.1038 30.1322 14.3252 28.9669 13.794 27.6846C13.2628 26.4022 12.9894 25.0277 12.9894 23.6396C19.3242 28.119 27.7944 28.119 34.1291 23.6396Z" fill="white"/>
<path d="M79.27 13.8062L70.5352 29.0127V37.5H65.761V29.0127L56.6725 13.8062H62.1186L68.1304 24.0617L73.824 13.8062H79.27ZM92.006 28.659C92.006 29.2602 91.9353 29.8614 91.8292 30.4272H78.4263C78.9921 32.5137 80.5835 33.7868 82.8114 33.7868C84.2613 33.7868 85.5344 33.4332 86.3124 32.1954H91.4048C90.5207 35.7672 86.9136 37.8536 82.8114 37.8536C77.4361 37.8536 73.6168 34.0697 73.6168 28.659C73.6168 23.2837 77.4361 19.4644 82.8114 19.4644C88.1867 19.4644 92.006 23.2837 92.006 28.659ZM82.8114 23.5313C80.7249 23.5313 79.1689 24.6629 78.5324 26.5372H87.0904C86.4539 24.6629 84.8978 23.5313 82.8114 23.5313ZM101.194 37.8536C95.8184 37.8536 91.9991 34.0697 91.9991 28.659C91.9991 23.2837 95.8184 19.4644 101.194 19.4644C102.962 19.4644 104.518 19.9949 105.791 20.9497V19.8181H110.388V37.5H105.791V36.3684C104.518 37.3232 102.962 37.8536 101.194 37.8536ZM101.194 33.61C103.987 33.61 105.791 31.665 105.791 28.659C105.791 25.6531 103.987 23.7081 101.194 23.7081C98.3999 23.7081 96.5964 25.6531 96.5964 28.659C96.5964 31.665 98.3999 33.61 101.194 33.61ZM111.08 37.5V19.8181H115.678V22.1167L120.982 19.8181V24.5922L115.678 26.714V37.5H111.08ZM121.692 37.5V13.8062H130.321C135.378 13.8062 139.021 17.0597 139.021 21.9046C139.021 26.7494 135.378 30.0029 130.321 30.0029H126.466V37.5H121.692ZM130.321 18.2267H126.466V25.5824H130.321C132.761 25.5824 134.246 24.1325 134.246 21.9046C134.246 19.6766 132.726 18.2267 130.321 18.2267ZM156.729 28.659C156.729 29.2602 156.658 29.8614 156.552 30.4272H143.149C143.715 32.5137 145.306 33.7868 147.534 33.7868C148.984 33.7868 150.257 33.4332 151.035 32.1954H156.127C155.243 35.7672 151.636 37.8536 147.534 37.8536C142.159 37.8536 138.339 34.0697 138.339 28.659C138.339 23.2837 142.159 19.4644 147.534 19.4644C152.909 19.4644 156.729 23.2837 156.729 28.659ZM147.534 23.5313C145.448 23.5313 143.892 24.6629 143.255 26.5372H151.813C151.177 24.6629 149.621 23.5313 147.534 23.5313ZM175.111 28.659C175.111 29.2602 175.04 29.8614 174.934 30.4272H161.531C162.097 32.5137 163.688 33.7868 165.916 33.7868C167.366 33.7868 168.639 33.4332 169.417 32.1954H174.51C173.626 35.7672 170.019 37.8536 165.916 37.8536C160.541 37.8536 156.722 34.0697 156.722 28.659C156.722 23.2837 160.541 19.4644 165.916 19.4644C171.292 19.4644 175.111 23.2837 175.111 28.659ZM165.916 23.5313C163.83 23.5313 162.274 24.6629 161.637 26.5372H170.195C169.559 24.6629 168.003 23.5313 165.916 23.5313ZM175.458 37.5V19.8181H180.055V22.1167L185.36 19.8181V24.5922L180.055 26.714V37.5H175.458Z" fill="white"/>
</svg>
